<?xml version="1.0" encoding="utf-8"?>
 <!DOCTYPE svg PUBLIC "-//W3C//DTD SVG 1.1//EN" "http://www.w3.org/Graphics/SVG/1.1/DTD/svg11.dtd">
	<svg version="1.1" id="Layer_1" xmlns="http://www.w3.org/2000/svg" xmlns:xlink="http://www.w3.org/1999/xlink" x="0px" y="0px" width="800px" height="800px" viewBox="0 0 800 800" enable-background=		"new 0 0 800 800" xml:space="preserve">
<g transform="translate(400 400)">
<g transform="rotate(270)">
<g transform="translate(-400 -400)">
<colortri points="800 800 10 800 49 779" colors=" 0.0392156862745 0.0274509803922 0.0196078431373 0.247058823529 0.0196078431373 0.0274509803922 0.960784313725 0.247058823529 0.0196078431373 0.0274509803922 0.0392156862745 0.247058823529 "/>
<colortri points="800 800 49 779 88 757" colors=" 0.078431372549 0.0549019607843 0.0392156862745 0.247058823529 0.0392156862745 0.0549019607843 0.921568627451 0.247058823529 0.0392156862745 0.0549019607843 0.078431372549 0.247058823529 "/>
<colortri points="800 800 88 757 126 734" colors=" 0.117647058824 0.0823529411765 0.0588235294118 0.247058823529 0.0588235294118 0.0823529411765 0.882352941176 0.247058823529 0.0588235294118 0.0823529411765 0.117647058824 0.247058823529 "/>
<colortri points="800 800 126 734 164 710" colors=" 0.156862745098 0.109803921569 0.078431372549 0.247058823529 0.078431372549 0.109803921569 0.843137254902 0.247058823529 0.078431372549 0.109803921569 0.156862745098 0.247058823529 "/>
<colortri points="800 800 164 710 201 685" colors=" 0.196078431373 0.137254901961 0.0980392156863 0.247058823529 0.0980392156863 0.137254901961 0.803921568627 0.247058823529 0.0980392156863 0.137254901961 0.196078431373 0.247058823529 "/>
<colortri points="800 800 201 685 237 659" colors=" 0.235294117647 0.164705882353 0.117647058824 0.247058823529 0.117647058824 0.164705882353 0.764705882353 0.247058823529 0.117647058824 0.164705882353 0.235294117647 0.247058823529 "/>
<colortri points="800 800 237 659 273 632" colors=" 0.274509803922 0.192156862745 0.137254901961 0.247058823529 0.137254901961 0.192156862745 0.725490196078 0.247058823529 0.137254901961 0.192156862745 0.274509803922 0.247058823529 "/>
<colortri points="800 800 273 632 308 604" colors=" 0.313725490196 0.219607843137 0.156862745098 0.247058823529 0.156862745098 0.219607843137 0.686274509804 0.247058823529 0.156862745098 0.219607843137 0.313725490196 0.247058823529 "/>
<colortri points="800 800 308 604 342 575" colors=" 0.352941176471 0.247058823529 0.176470588235 0.247058823529 0.176470588235 0.247058823529 0.647058823529 0.247058823529 0.176470588235 0.247058823529 0.352941176471 0.247058823529 "/>
<colortri points="800 800 342 575 376 546" colors=" 0.392156862745 0.274509803922 0.196078431373 0.247058823529 0.196078431373 0.274509803922 0.607843137255 0.247058823529 0.196078431373 0.274509803922 0.392156862745 0.247058823529 "/>
<colortri points="800 800 376 546 409 516" colors=" 0.43137254902 0.301960784314 0.21568627451 0.247058823529 0.21568627451 0.301960784314 0.56862745098 0.247058823529 0.21568627451 0.301960784314 0.43137254902 0.247058823529 "/>
<colortri points="800 800 409 516 441 485" colors=" 0.470588235294 0.329411764706 0.235294117647 0.247058823529 0.235294117647 0.329411764706 0.529411764706 0.247058823529 0.235294117647 0.329411764706 0.470588235294 0.247058823529 "/>
<colortri points="800 800 441 485 472 453" colors=" 0.509803921569 0.356862745098 0.254901960784 0.247058823529 0.254901960784 0.356862745098 0.490196078431 0.247058823529 0.254901960784 0.356862745098 0.509803921569 0.247058823529 "/>
<colortri points="800 800 472 453 502 420" colors=" 0.549019607843 0.38431372549 0.274509803922 0.247058823529 0.274509803922 0.38431372549 0.450980392157 0.247058823529 0.274509803922 0.38431372549 0.549019607843 0.247058823529 "/>
<colortri points="800 800 502 420 532 387" colors=" 0.588235294118 0.411764705882 0.294117647059 0.247058823529 0.294117647059 0.411764705882 0.411764705882 0.247058823529 0.294117647059 0.411764705882 0.588235294118 0.247058823529 "/>
<colortri points="800 800 532 387 561 353" colors=" 0.627450980392 0.439215686275 0.313725490196 0.247058823529 0.313725490196 0.439215686275 0.372549019608 0.247058823529 0.313725490196 0.439215686275 0.627450980392 0.247058823529 "/>
<colortri points="800 800 561 353 589 318" colors=" 0.666666666667 0.466666666667 0.333333333333 0.247058823529 0.333333333333 0.466666666667 0.333333333333 0.247058823529 0.333333333333 0.466666666667 0.666666666667 0.247058823529 "/>
<colortri points="800 800 589 318 616 282" colors=" 0.705882352941 0.494117647059 0.352941176471 0.247058823529 0.352941176471 0.494117647059 0.294117647059 0.247058823529 0.352941176471 0.494117647059 0.705882352941 0.247058823529 "/>
<colortri points="800 800 616 282 642 246" colors=" 0.745098039216 0.521568627451 0.372549019608 0.247058823529 0.372549019608 0.521568627451 0.254901960784 0.247058823529 0.372549019608 0.521568627451 0.745098039216 0.247058823529 "/>
<colortri points="800 800 642 246 667 209" colors=" 0.78431372549 0.549019607843 0.392156862745 0.247058823529 0.392156862745 0.549019607843 0.21568627451 0.247058823529 0.392156862745 0.549019607843 0.78431372549 0.247058823529 "/>
<colortri points="800 800 667 209 691 172" colors=" 0.823529411765 0.576470588235 0.411764705882 0.247058823529 0.411764705882 0.576470588235 0.176470588235 0.247058823529 0.411764705882 0.576470588235 0.823529411765 0.247058823529 "/>
<colortri points="800 800 691 172 714 134" colors=" 0.862745098039 0.603921568627 0.43137254902 0.247058823529 0.43137254902 0.603921568627 0.137254901961 0.247058823529 0.43137254902 0.603921568627 0.862745098039 0.247058823529 "/>
<colortri points="800 800 714 134 736 95" colors=" 0.901960784314 0.63137254902 0.450980392157 0.247058823529 0.450980392157 0.63137254902 0.0980392156863 0.247058823529 0.450980392157 0.63137254902 0.901960784314 0.247058823529 "/>
<colortri points="800 800 736 95 757 56" colors=" 0.941176470588 0.658823529412 0.470588235294 0.247058823529 0.470588235294 0.658823529412 0.0588235294118 0.247058823529 0.470588235294 0.658823529412 0.941176470588 0.247058823529 "/>
<colortri points="800 800 757 56 777 16" colors=" 0.980392156863 0.686274509804 0.490196078431 0.247058823529 0.490196078431 0.686274509804 0.0196078431373 0.247058823529 0.490196078431 0.686274509804 0.980392156863 0.247058823529 "/>
</g>
</g>
</g>
<g transform="translate(400 400)">
<g transform="rotate(0)">
<g transform="translate(-400 -400)">
<colortri points="800 800 10 800 49 779" colors=" 0.0392156862745 0.0274509803922 0.0196078431373 0.247058823529 0.0196078431373 0.0274509803922 0.960784313725 0.247058823529 0.0196078431373 0.0274509803922 0.0392156862745 0.247058823529 "/>
<colortri points="800 800 49 779 88 757" colors=" 0.078431372549 0.0549019607843 0.0392156862745 0.247058823529 0.0392156862745 0.0549019607843 0.921568627451 0.247058823529 0.0392156862745 0.0549019607843 0.078431372549 0.247058823529 "/>
<colortri points="800 800 88 757 126 734" colors=" 0.117647058824 0.0823529411765 0.0588235294118 0.247058823529 0.0588235294118 0.0823529411765 0.882352941176 0.247058823529 0.0588235294118 0.0823529411765 0.117647058824 0.247058823529 "/>
<colortri points="800 800 126 734 164 710" colors=" 0.156862745098 0.109803921569 0.078431372549 0.247058823529 0.078431372549 0.109803921569 0.843137254902 0.247058823529 0.078431372549 0.109803921569 0.156862745098 0.247058823529 "/>
<colortri points="800 800 164 710 201 685" colors=" 0.196078431373 0.137254901961 0.0980392156863 0.247058823529 0.0980392156863 0.137254901961 0.803921568627 0.247058823529 0.0980392156863 0.137254901961 0.196078431373 0.247058823529 "/>
<colortri points="800 800 201 685 237 659" colors=" 0.235294117647 0.164705882353 0.117647058824 0.247058823529 0.117647058824 0.164705882353 0.764705882353 0.247058823529 0.117647058824 0.164705882353 0.235294117647 0.247058823529 "/>
<colortri points="800 800 237 659 273 632" colors=" 0.274509803922 0.192156862745 0.137254901961 0.247058823529 0.137254901961 0.192156862745 0.725490196078 0.247058823529 0.137254901961 0.192156862745 0.274509803922 0.247058823529 "/>
<colortri points="800 800 273 632 308 604" colors=" 0.313725490196 0.219607843137 0.156862745098 0.247058823529 0.156862745098 0.219607843137 0.686274509804 0.247058823529 0.156862745098 0.219607843137 0.313725490196 0.247058823529 "/>
<colortri points="800 800 308 604 342 575" colors=" 0.352941176471 0.247058823529 0.176470588235 0.247058823529 0.176470588235 0.247058823529 0.647058823529 0.247058823529 0.176470588235 0.247058823529 0.352941176471 0.247058823529 "/>
<colortri points="800 800 342 575 376 546" colors=" 0.392156862745 0.274509803922 0.196078431373 0.247058823529 0.196078431373 0.274509803922 0.607843137255 0.247058823529 0.196078431373 0.274509803922 0.392156862745 0.247058823529 "/>
<colortri points="800 800 376 546 409 516" colors=" 0.43137254902 0.301960784314 0.21568627451 0.247058823529 0.21568627451 0.301960784314 0.56862745098 0.247058823529 0.21568627451 0.301960784314 0.43137254902 0.247058823529 "/>
<colortri points="800 800 409 516 441 485" colors=" 0.470588235294 0.329411764706 0.235294117647 0.247058823529 0.235294117647 0.329411764706 0.529411764706 0.247058823529 0.235294117647 0.329411764706 0.470588235294 0.247058823529 "/>
<colortri points="800 800 441 485 472 453" colors=" 0.509803921569 0.356862745098 0.254901960784 0.247058823529 0.254901960784 0.356862745098 0.490196078431 0.247058823529 0.254901960784 0.356862745098 0.509803921569 0.247058823529 "/>
<colortri points="800 800 472 453 502 420" colors=" 0.549019607843 0.38431372549 0.274509803922 0.247058823529 0.274509803922 0.38431372549 0.450980392157 0.247058823529 0.274509803922 0.38431372549 0.549019607843 0.247058823529 "/>
<colortri points="800 800 502 420 532 387" colors=" 0.588235294118 0.411764705882 0.294117647059 0.247058823529 0.294117647059 0.411764705882 0.411764705882 0.247058823529 0.294117647059 0.411764705882 0.588235294118 0.247058823529 "/>
<colortri points="800 800 532 387 561 353" colors=" 0.627450980392 0.439215686275 0.313725490196 0.247058823529 0.313725490196 0.439215686275 0.372549019608 0.247058823529 0.313725490196 0.439215686275 0.627450980392 0.247058823529 "/>
<colortri points="800 800 561 353 589 318" colors=" 0.666666666667 0.466666666667 0.333333333333 0.247058823529 0.333333333333 0.466666666667 0.333333333333 0.247058823529 0.333333333333 0.466666666667 0.666666666667 0.247058823529 "/>
<colortri points="800 800 589 318 616 282" colors=" 0.705882352941 0.494117647059 0.352941176471 0.247058823529 0.352941176471 0.494117647059 0.294117647059 0.247058823529 0.352941176471 0.494117647059 0.705882352941 0.247058823529 "/>
<colortri points="800 800 616 282 642 246" colors=" 0.745098039216 0.521568627451 0.372549019608 0.247058823529 0.372549019608 0.521568627451 0.254901960784 0.247058823529 0.372549019608 0.521568627451 0.745098039216 0.247058823529 "/>
<colortri points="800 800 642 246 667 209" colors=" 0.78431372549 0.549019607843 0.392156862745 0.247058823529 0.392156862745 0.549019607843 0.21568627451 0.247058823529 0.392156862745 0.549019607843 0.78431372549 0.247058823529 "/>
<colortri points="800 800 667 209 691 172" colors=" 0.823529411765 0.576470588235 0.411764705882 0.247058823529 0.411764705882 0.576470588235 0.176470588235 0.247058823529 0.411764705882 0.576470588235 0.823529411765 0.247058823529 "/>
<colortri points="800 800 691 172 714 134" colors=" 0.862745098039 0.603921568627 0.43137254902 0.247058823529 0.43137254902 0.603921568627 0.137254901961 0.247058823529 0.43137254902 0.603921568627 0.862745098039 0.247058823529 "/>
<colortri points="800 800 714 134 736 95" colors=" 0.901960784314 0.63137254902 0.450980392157 0.247058823529 0.450980392157 0.63137254902 0.0980392156863 0.247058823529 0.450980392157 0.63137254902 0.901960784314 0.247058823529 "/>
<colortri points="800 800 736 95 757 56" colors=" 0.941176470588 0.658823529412 0.470588235294 0.247058823529 0.470588235294 0.658823529412 0.0588235294118 0.247058823529 0.470588235294 0.658823529412 0.941176470588 0.247058823529 "/>
<colortri points="800 800 757 56 777 16" colors=" 0.980392156863 0.686274509804 0.490196078431 0.247058823529 0.490196078431 0.686274509804 0.0196078431373 0.247058823529 0.490196078431 0.686274509804 0.980392156863 0.247058823529 "/>
</g>
</g>
</g>
<g transform="translate(400 400)">
<g transform="rotate(90)">
<g transform="translate(-400 -400)">
<colortri points="800 800 10 800 49 779" colors=" 0.0392156862745 0.0274509803922 0.0196078431373 0.247058823529 0.0196078431373 0.0274509803922 0.960784313725 0.247058823529 0.0196078431373 0.0274509803922 0.0392156862745 0.247058823529 "/>
<colortri points="800 800 49 779 88 757" colors=" 0.078431372549 0.0549019607843 0.0392156862745 0.247058823529 0.0392156862745 0.0549019607843 0.921568627451 0.247058823529 0.0392156862745 0.0549019607843 0.078431372549 0.247058823529 "/>
<colortri points="800 800 88 757 126 734" colors=" 0.117647058824 0.0823529411765 0.0588235294118 0.247058823529 0.0588235294118 0.0823529411765 0.882352941176 0.247058823529 0.0588235294118 0.0823529411765 0.117647058824 0.247058823529 "/>
<colortri points="800 800 126 734 164 710" colors=" 0.156862745098 0.109803921569 0.078431372549 0.247058823529 0.078431372549 0.109803921569 0.843137254902 0.247058823529 0.078431372549 0.109803921569 0.156862745098 0.247058823529 "/>
<colortri points="800 800 164 710 201 685" colors=" 0.196078431373 0.137254901961 0.0980392156863 0.247058823529 0.0980392156863 0.137254901961 0.803921568627 0.247058823529 0.0980392156863 0.137254901961 0.196078431373 0.247058823529 "/>
<colortri points="800 800 201 685 237 659" colors=" 0.235294117647 0.164705882353 0.117647058824 0.247058823529 0.117647058824 0.164705882353 0.764705882353 0.247058823529 0.117647058824 0.164705882353 0.235294117647 0.247058823529 "/>
<colortri points="800 800 237 659 273 632" colors=" 0.274509803922 0.192156862745 0.137254901961 0.247058823529 0.137254901961 0.192156862745 0.725490196078 0.247058823529 0.137254901961 0.192156862745 0.274509803922 0.247058823529 "/>
<colortri points="800 800 273 632 308 604" colors=" 0.313725490196 0.219607843137 0.156862745098 0.247058823529 0.156862745098 0.219607843137 0.686274509804 0.247058823529 0.156862745098 0.219607843137 0.313725490196 0.247058823529 "/>
<colortri points="800 800 308 604 342 575" colors=" 0.352941176471 0.247058823529 0.176470588235 0.247058823529 0.176470588235 0.247058823529 0.647058823529 0.247058823529 0.176470588235 0.247058823529 0.352941176471 0.247058823529 "/>
<colortri points="800 800 342 575 376 546" colors=" 0.392156862745 0.274509803922 0.196078431373 0.247058823529 0.196078431373 0.274509803922 0.607843137255 0.247058823529 0.196078431373 0.274509803922 0.392156862745 0.247058823529 "/>
<colortri points="800 800 376 546 409 516" colors=" 0.43137254902 0.301960784314 0.21568627451 0.247058823529 0.21568627451 0.301960784314 0.56862745098 0.247058823529 0.21568627451 0.301960784314 0.43137254902 0.247058823529 "/>
<colortri points="800 800 409 516 441 485" colors=" 0.470588235294 0.329411764706 0.235294117647 0.247058823529 0.235294117647 0.329411764706 0.529411764706 0.247058823529 0.235294117647 0.329411764706 0.470588235294 0.247058823529 "/>
<colortri points="800 800 441 485 472 453" colors=" 0.509803921569 0.356862745098 0.254901960784 0.247058823529 0.254901960784 0.356862745098 0.490196078431 0.247058823529 0.254901960784 0.356862745098 0.509803921569 0.247058823529 "/>
<colortri points="800 800 472 453 502 420" colors=" 0.549019607843 0.38431372549 0.274509803922 0.247058823529 0.274509803922 0.38431372549 0.450980392157 0.247058823529 0.274509803922 0.38431372549 0.549019607843 0.247058823529 "/>
<colortri points="800 800 502 420 532 387" colors=" 0.588235294118 0.411764705882 0.294117647059 0.247058823529 0.294117647059 0.411764705882 0.411764705882 0.247058823529 0.294117647059 0.411764705882 0.588235294118 0.247058823529 "/>
<colortri points="800 800 532 387 561 353" colors=" 0.627450980392 0.439215686275 0.313725490196 0.247058823529 0.313725490196 0.439215686275 0.372549019608 0.247058823529 0.313725490196 0.439215686275 0.627450980392 0.247058823529 "/>
<colortri points="800 800 561 353 589 318" colors=" 0.666666666667 0.466666666667 0.333333333333 0.247058823529 0.333333333333 0.466666666667 0.333333333333 0.247058823529 0.333333333333 0.466666666667 0.666666666667 0.247058823529 "/>
<colortri points="800 800 589 318 616 282" colors=" 0.705882352941 0.494117647059 0.352941176471 0.247058823529 0.352941176471 0.494117647059 0.294117647059 0.247058823529 0.352941176471 0.494117647059 0.705882352941 0.247058823529 "/>
<colortri points="800 800 616 282 642 246" colors=" 0.745098039216 0.521568627451 0.372549019608 0.247058823529 0.372549019608 0.521568627451 0.254901960784 0.247058823529 0.372549019608 0.521568627451 0.745098039216 0.247058823529 "/>
<colortri points="800 800 642 246 667 209" colors=" 0.78431372549 0.549019607843 0.392156862745 0.247058823529 0.392156862745 0.549019607843 0.21568627451 0.247058823529 0.392156862745 0.549019607843 0.78431372549 0.247058823529 "/>
<colortri points="800 800 667 209 691 172" colors=" 0.823529411765 0.576470588235 0.411764705882 0.247058823529 0.411764705882 0.576470588235 0.176470588235 0.247058823529 0.411764705882 0.576470588235 0.823529411765 0.247058823529 "/>
<colortri points="800 800 691 172 714 134" colors=" 0.862745098039 0.603921568627 0.43137254902 0.247058823529 0.43137254902 0.603921568627 0.137254901961 0.247058823529 0.43137254902 0.603921568627 0.862745098039 0.247058823529 "/>
<colortri points="800 800 714 134 736 95" colors=" 0.901960784314 0.63137254902 0.450980392157 0.247058823529 0.450980392157 0.63137254902 0.0980392156863 0.247058823529 0.450980392157 0.63137254902 0.901960784314 0.247058823529 "/>
<colortri points="800 800 736 95 757 56" colors=" 0.941176470588 0.658823529412 0.470588235294 0.247058823529 0.470588235294 0.658823529412 0.0588235294118 0.247058823529 0.470588235294 0.658823529412 0.941176470588 0.247058823529 "/>
<colortri points="800 800 757 56 777 16" colors=" 0.980392156863 0.686274509804 0.490196078431 0.247058823529 0.490196078431 0.686274509804 0.0196078431373 0.247058823529 0.490196078431 0.686274509804 0.980392156863 0.247058823529 "/>
</g>
</g>
</g>
<g transform="translate(400 400)">
<g transform="rotate(180)">
<g transform="translate(-400 -400)">
<colortri points="800 800 10 800 49 779" colors=" 0.0392156862745 0.0274509803922 0.0196078431373 0.247058823529 0.0196078431373 0.0274509803922 0.960784313725 0.247058823529 0.0196078431373 0.0274509803922 0.0392156862745 0.247058823529 "/>
<colortri points="800 800 49 779 88 757" colors=" 0.078431372549 0.0549019607843 0.0392156862745 0.247058823529 0.0392156862745 0.0549019607843 0.921568627451 0.247058823529 0.0392156862745 0.0549019607843 0.078431372549 0.247058823529 "/>
<colortri points="800 800 88 757 126 734" colors=" 0.117647058824 0.0823529411765 0.0588235294118 0.247058823529 0.0588235294118 0.0823529411765 0.882352941176 0.247058823529 0.0588235294118 0.0823529411765 0.117647058824 0.247058823529 "/>
<colortri points="800 800 126 734 164 710" colors=" 0.156862745098 0.109803921569 0.078431372549 0.247058823529 0.078431372549 0.109803921569 0.843137254902 0.247058823529 0.078431372549 0.109803921569 0.156862745098 0.247058823529 "/>
<colortri points="800 800 164 710 201 685" colors=" 0.196078431373 0.137254901961 0.0980392156863 0.247058823529 0.0980392156863 0.137254901961 0.803921568627 0.247058823529 0.0980392156863 0.137254901961 0.196078431373 0.247058823529 "/>
<colortri points="800 800 201 685 237 659" colors=" 0.235294117647 0.164705882353 0.117647058824 0.247058823529 0.117647058824 0.164705882353 0.764705882353 0.247058823529 0.117647058824 0.164705882353 0.235294117647 0.247058823529 "/>
<colortri points="800 800 237 659 273 632" colors=" 0.274509803922 0.192156862745 0.137254901961 0.247058823529 0.137254901961 0.192156862745 0.725490196078 0.247058823529 0.137254901961 0.192156862745 0.274509803922 0.247058823529 "/>
<colortri points="800 800 273 632 308 604" colors=" 0.313725490196 0.219607843137 0.156862745098 0.247058823529 0.156862745098 0.219607843137 0.686274509804 0.247058823529 0.156862745098 0.219607843137 0.313725490196 0.247058823529 "/>
<colortri points="800 800 308 604 342 575" colors=" 0.352941176471 0.247058823529 0.176470588235 0.247058823529 0.176470588235 0.247058823529 0.647058823529 0.247058823529 0.176470588235 0.247058823529 0.352941176471 0.247058823529 "/>
<colortri points="800 800 342 575 376 546" colors=" 0.392156862745 0.274509803922 0.196078431373 0.247058823529 0.196078431373 0.274509803922 0.607843137255 0.247058823529 0.196078431373 0.274509803922 0.392156862745 0.247058823529 "/>
<colortri points="800 800 376 546 409 516" colors=" 0.43137254902 0.301960784314 0.21568627451 0.247058823529 0.21568627451 0.301960784314 0.56862745098 0.247058823529 0.21568627451 0.301960784314 0.43137254902 0.247058823529 "/>
<colortri points="800 800 409 516 441 485" colors=" 0.470588235294 0.329411764706 0.235294117647 0.247058823529 0.235294117647 0.329411764706 0.529411764706 0.247058823529 0.235294117647 0.329411764706 0.470588235294 0.247058823529 "/>
<colortri points="800 800 441 485 472 453" colors=" 0.509803921569 0.356862745098 0.254901960784 0.247058823529 0.254901960784 0.356862745098 0.490196078431 0.247058823529 0.254901960784 0.356862745098 0.509803921569 0.247058823529 "/>
<colortri points="800 800 472 453 502 420" colors=" 0.549019607843 0.38431372549 0.274509803922 0.247058823529 0.274509803922 0.38431372549 0.450980392157 0.247058823529 0.274509803922 0.38431372549 0.549019607843 0.247058823529 "/>
<colortri points="800 800 502 420 532 387" colors=" 0.588235294118 0.411764705882 0.294117647059 0.247058823529 0.294117647059 0.411764705882 0.411764705882 0.247058823529 0.294117647059 0.411764705882 0.588235294118 0.247058823529 "/>
<colortri points="800 800 532 387 561 353" colors=" 0.627450980392 0.439215686275 0.313725490196 0.247058823529 0.313725490196 0.439215686275 0.372549019608 0.247058823529 0.313725490196 0.439215686275 0.627450980392 0.247058823529 "/>
<colortri points="800 800 561 353 589 318" colors=" 0.666666666667 0.466666666667 0.333333333333 0.247058823529 0.333333333333 0.466666666667 0.333333333333 0.247058823529 0.333333333333 0.466666666667 0.666666666667 0.247058823529 "/>
<colortri points="800 800 589 318 616 282" colors=" 0.705882352941 0.494117647059 0.352941176471 0.247058823529 0.352941176471 0.494117647059 0.294117647059 0.247058823529 0.352941176471 0.494117647059 0.705882352941 0.247058823529 "/>
<colortri points="800 800 616 282 642 246" colors=" 0.745098039216 0.521568627451 0.372549019608 0.247058823529 0.372549019608 0.521568627451 0.254901960784 0.247058823529 0.372549019608 0.521568627451 0.745098039216 0.247058823529 "/>
<colortri points="800 800 642 246 667 209" colors=" 0.78431372549 0.549019607843 0.392156862745 0.247058823529 0.392156862745 0.549019607843 0.21568627451 0.247058823529 0.392156862745 0.549019607843 0.78431372549 0.247058823529 "/>
<colortri points="800 800 667 209 691 172" colors=" 0.823529411765 0.576470588235 0.411764705882 0.247058823529 0.411764705882 0.576470588235 0.176470588235 0.247058823529 0.411764705882 0.576470588235 0.823529411765 0.247058823529 "/>
<colortri points="800 800 691 172 714 134" colors=" 0.862745098039 0.603921568627 0.43137254902 0.247058823529 0.43137254902 0.603921568627 0.137254901961 0.247058823529 0.43137254902 0.603921568627 0.862745098039 0.247058823529 "/>
<colortri points="800 800 714 134 736 95" colors=" 0.901960784314 0.63137254902 0.450980392157 0.247058823529 0.450980392157 0.63137254902 0.0980392156863 0.247058823529 0.450980392157 0.63137254902 0.901960784314 0.247058823529 "/>
<colortri points="800 800 736 95 757 56" colors=" 0.941176470588 0.658823529412 0.470588235294 0.247058823529 0.470588235294 0.658823529412 0.0588235294118 0.247058823529 0.470588235294 0.658823529412 0.941176470588 0.247058823529 "/>
<colortri points="800 800 757 56 777 16" colors=" 0.980392156863 0.686274509804 0.490196078431 0.247058823529 0.490196078431 0.686274509804 0.0196078431373 0.247058823529 0.490196078431 0.686274509804 0.980392156863 0.247058823529 "/>
</g>
</g>
</g>
<g transform="translate(400 400)">
<g transform="rotate(270)">
<g transform="translate(-400 -400)">
<colortri points="800 800 472 453 502 420" colors=" 0.549019607843 0.38431372549 0.274509803922 0.247058823529 0.274509803922 0.38431372549 0.450980392157 0.247058823529 0.274509803922 0.38431372549 0.549019607843 0.247058823529 "/>
<colortri points="800 800 502 420 532 387" colors=" 0.588235294118 0.411764705882 0.294117647059 0.247058823529 0.294117647059 0.411764705882 0.411764705882 0.247058823529 0.294117647059 0.411764705882 0.588235294118 0.247058823529 "/>
<colortri points="800 800 532 387 561 353" colors=" 0.627450980392 0.439215686275 0.313725490196 0.247058823529 0.313725490196 0.439215686275 0.372549019608 0.247058823529 0.313725490196 0.439215686275 0.627450980392 0.247058823529 "/>
<colortri points="800 800 561 353 589 318" colors=" 0.666666666667 0.466666666667 0.333333333333 0.247058823529 0.333333333333 0.466666666667 0.333333333333 0.247058823529 0.333333333333 0.466666666667 0.666666666667 0.247058823529 "/>
<colortri points="800 800 589 318 616 282" colors=" 0.705882352941 0.494117647059 0.352941176471 0.247058823529 0.352941176471 0.494117647059 0.294117647059 0.247058823529 0.352941176471 0.494117647059 0.705882352941 0.247058823529 "/>
<colortri points="800 800 616 282 642 246" colors=" 0.745098039216 0.521568627451 0.372549019608 0.247058823529 0.372549019608 0.521568627451 0.254901960784 0.247058823529 0.372549019608 0.521568627451 0.745098039216 0.247058823529 "/>
<colortri points="800 800 642 246 667 209" colors=" 0.78431372549 0.549019607843 0.392156862745 0.247058823529 0.392156862745 0.549019607843 0.21568627451 0.247058823529 0.392156862745 0.549019607843 0.78431372549 0.247058823529 "/>
<colortri points="800 800 667 209 691 172" colors=" 0.823529411765 0.576470588235 0.411764705882 0.247058823529 0.411764705882 0.576470588235 0.176470588235 0.247058823529 0.411764705882 0.576470588235 0.823529411765 0.247058823529 "/>
<colortri points="800 800 691 172 714 134" colors=" 0.862745098039 0.603921568627 0.43137254902 0.247058823529 0.43137254902 0.603921568627 0.137254901961 0.247058823529 0.43137254902 0.603921568627 0.862745098039 0.247058823529 "/>
<colortri points="800 800 714 134 736 95" colors=" 0.901960784314 0.63137254902 0.450980392157 0.247058823529 0.450980392157 0.63137254902 0.0980392156863 0.247058823529 0.450980392157 0.63137254902 0.901960784314 0.247058823529 "/>
<colortri points="800 800 736 95 757 56" colors=" 0.941176470588 0.658823529412 0.470588235294 0.247058823529 0.470588235294 0.658823529412 0.0588235294118 0.247058823529 0.470588235294 0.658823529412 0.941176470588 0.247058823529 "/>
<colortri points="800 800 757 56 777 16" colors=" 0.980392156863 0.686274509804 0.490196078431 0.247058823529 0.490196078431 0.686274509804 0.0196078431373 0.247058823529 0.490196078431 0.686274509804 0.980392156863 0.247058823529 "/>
</g>
</g>
</g>
</svg>